<svg width="521" height="29" viewBox="0 0 521 29" fill="none" xmlns="http://www.w3.org/2000/svg">
<path d="M68.8332 8.04693V22.0946H72.7975V8.04693H68.8332ZM37.6426 8.02319V22.0827H41.6426V11.166L44.7617 11.1779C45.7855 11.1779 46.4997 11.4279 46.9879 11.9517C47.6189 12.6184 47.8689 13.7017 47.8689 15.666V22.0827H51.7498V14.3208C51.7498 8.77315 48.2141 8.02319 44.7617 8.02319H37.6426ZM75.226 8.04693V22.0946H81.6545C85.0832 22.0946 86.2022 21.5232 87.4046 20.2493C88.2617 19.3565 88.8093 17.3803 88.8093 15.2255C88.8093 13.2494 88.345 11.4875 87.5236 10.3922C86.0712 8.42796 83.9522 8.04693 80.7855 8.04693H75.226ZM79.1545 11.0946H80.857C83.3331 11.0946 84.9283 12.2017 84.9283 15.0827C84.9283 17.9636 83.3331 19.0826 80.857 19.0826H79.1545V11.0946ZM63.1188 8.04693L59.8093 19.1779L56.6426 8.04693H52.357L56.8808 22.0946H62.595L67.1664 8.04693H63.1188ZM90.6664 22.0946H94.6307V8.04693H90.6664V22.0946ZM101.786 8.04693L96.2498 22.0827H100.155L101.035 19.5945H107.583L108.416 22.0708H112.667L107.083 8.04693H101.786ZM104.357 10.6065L106.762 17.178H101.881L104.357 10.6065Z" fill="white"/>
<path d="M12.0595 10.3809V8.45238C12.25 8.44051 12.4404 8.42852 12.631 8.42852C17.9166 8.26192 21.3809 12.9762 21.3809 12.9762C21.3809 12.9762 17.6429 18.1666 13.631 18.1666C13.0952 18.1666 12.5715 18.0833 12.0714 17.9166V12.0595C14.1309 12.3095 14.5477 13.2142 15.7738 15.2737L18.5239 12.9643C18.5239 12.9643 16.5119 10.3333 13.1309 10.3333C12.7738 10.3214 12.4167 10.3452 12.0595 10.3809ZM12.0595 4V6.88092L12.631 6.8452C19.9762 6.59517 24.7739 12.869 24.7739 12.869C24.7739 12.869 19.2738 19.5595 13.5476 19.5595C13.0476 19.5595 12.5596 19.5119 12.0714 19.4285V21.2143C12.4762 21.2619 12.8929 21.2976 13.2977 21.2976C18.631 21.2976 22.4882 18.5714 26.2262 15.3572C26.8453 15.8571 29.381 17.0595 29.9048 17.5833C26.3572 20.5595 18.0834 22.9523 13.3928 22.9523C12.9405 22.9523 12.5119 22.9286 12.0834 22.8809V25.3929H32.3453V4H12.0595ZM12.0595 17.9166V19.4405C7.13095 18.5595 5.76191 13.4285 5.76191 13.4285C5.76191 13.4285 8.13095 10.8095 12.0595 10.3809V12.0476H12.0477C9.9881 11.7976 8.36905 13.7261 8.36905 13.7261C8.36905 13.7261 9.28572 16.9762 12.0595 17.9166ZM3.30953 13.2142C3.30953 13.2142 6.22619 8.90472 12.0714 8.45238V6.88092C5.59525 7.4047 0 12.8809 0 12.8809C0 12.8809 3.16667 22.0477 12.0595 22.8809V21.2143C5.53571 20.4048 3.30953 13.2142 3.30953 13.2142Z" fill="#76B900"/>
<g clip-path="url(#clip0_1_1255)">
<path d="M173.308 15.0623C173.308 15.5041 173.355 15.8623 173.437 16.125C173.531 16.3877 173.648 16.6743 173.812 16.9848C173.871 17.0803 173.894 17.1759 173.894 17.2594C173.894 17.3789 173.824 17.4983 173.672 17.6176L172.933 18.1192C172.828 18.1908 172.722 18.2267 172.628 18.2267C172.511 18.2267 172.394 18.1669 172.277 18.0595C172.112 17.8804 171.972 17.6893 171.855 17.4983C171.737 17.2952 171.62 17.0684 171.491 16.7937C170.577 17.8923 169.428 18.4416 168.044 18.4416C167.06 18.4416 166.274 18.155 165.7 17.5818C165.125 17.0087 164.832 16.2444 164.832 15.2892C164.832 14.2742 165.184 13.4503 165.899 12.8294C166.614 12.2084 167.564 11.898 168.771 11.898C169.17 11.898 169.58 11.9338 170.014 11.9935C170.448 12.0532 170.893 12.1487 171.362 12.2562V11.3845C171.362 10.477 171.175 9.84412 170.811 9.47398C170.436 9.1038 169.803 8.92471 168.9 8.92471C168.49 8.92471 168.068 8.97245 167.634 9.07993C167.2 9.18741 166.778 9.31876 166.368 9.4859C166.18 9.56951 166.04 9.61725 165.958 9.64116C165.875 9.66503 165.817 9.67699 165.77 9.67699C165.606 9.67699 165.524 9.55755 165.524 9.30681V8.72171C165.524 8.53066 165.547 8.38735 165.606 8.30378C165.664 8.22017 165.77 8.1366 165.934 8.053C166.344 7.83808 166.837 7.65894 167.411 7.51568C167.986 7.36046 168.595 7.2888 169.24 7.2888C170.635 7.2888 171.655 7.6112 172.312 8.256C172.957 8.9008 173.285 9.87995 173.285 11.1935V15.0623H173.308ZM168.548 16.8773C168.935 16.8773 169.334 16.8057 169.756 16.6624C170.178 16.5191 170.553 16.2564 170.87 15.8982C171.057 15.6713 171.198 15.4206 171.268 15.1339C171.339 14.8474 171.386 14.5011 171.386 14.0951V13.5936C171.046 13.51 170.682 13.4383 170.307 13.3906C169.932 13.3428 169.568 13.3189 169.205 13.3189C168.419 13.3189 167.845 13.4742 167.458 13.7966C167.071 14.119 166.884 14.5727 166.884 15.1698C166.884 15.731 167.024 16.1489 167.317 16.4355C167.599 16.734 168.009 16.8773 168.548 16.8773ZM177.963 18.1669C177.752 18.1669 177.611 18.1311 177.517 18.0475C177.423 17.9759 177.341 17.8087 177.271 17.5818L174.516 8.35152C174.446 8.11269 174.41 7.95747 174.41 7.8739C174.41 7.68285 174.504 7.57538 174.692 7.57538H175.841C176.063 7.57538 176.216 7.6112 176.298 7.69477C176.392 7.76642 176.462 7.9336 176.532 8.16048L178.502 16.0653L180.331 8.16048C180.389 7.92165 180.46 7.76642 180.554 7.69477C180.647 7.62312 180.812 7.57538 181.023 7.57538H181.96C182.183 7.57538 182.336 7.6112 182.429 7.69477C182.523 7.76642 182.605 7.9336 182.652 8.16048L184.505 16.1609L186.533 8.16048C186.603 7.92165 186.685 7.76642 186.767 7.69477C186.861 7.62312 187.013 7.57538 187.224 7.57538H188.315C188.502 7.57538 188.608 7.6709 188.608 7.8739C188.608 7.9336 188.596 7.9933 188.584 8.06495C188.573 8.1366 188.549 8.23213 188.502 8.36348L185.677 17.5938C185.607 17.8326 185.525 17.9878 185.431 18.0595C185.337 18.1311 185.185 18.1789 184.985 18.1789H183.977C183.754 18.1789 183.602 18.1431 183.508 18.0595C183.414 17.9759 183.332 17.8207 183.285 17.5818L181.468 9.87995L179.663 17.5699C179.604 17.8087 179.534 17.964 179.44 18.0475C179.346 18.1311 179.182 18.1669 178.971 18.1669H177.963ZM193.028 18.4894C192.418 18.4894 191.808 18.4177 191.222 18.2744C190.636 18.1311 190.179 17.9759 189.874 17.7968C189.686 17.6893 189.557 17.5699 189.511 17.4624C189.464 17.3549 189.44 17.2356 189.44 17.1281V16.5191C189.44 16.2684 189.534 16.1489 189.71 16.1489C189.78 16.1489 189.851 16.1609 189.921 16.1847C189.991 16.2086 190.097 16.2564 190.214 16.3041C190.613 16.4833 191.046 16.6266 191.504 16.7221C191.973 16.8176 192.43 16.8654 192.899 16.8654C193.637 16.8654 194.212 16.734 194.61 16.4713C195.009 16.2086 195.22 15.8265 195.22 15.3369C195.22 15.0026 195.115 14.728 194.904 14.5011C194.692 14.2742 194.294 14.0712 193.719 13.8802L192.019 13.3428C191.164 13.0682 190.531 12.6622 190.144 12.1249C189.757 11.5995 189.557 11.0144 189.557 10.3934C189.557 9.89191 189.663 9.45007 189.874 9.06798C190.085 8.68588 190.366 8.35153 190.718 8.08882C191.07 7.81421 191.468 7.6112 191.937 7.4679C192.406 7.32463 192.899 7.26489 193.415 7.26489C193.673 7.26489 193.942 7.27685 194.2 7.31267C194.47 7.3485 194.716 7.39624 194.962 7.44403C195.197 7.50372 195.419 7.56342 195.63 7.63507C195.841 7.70673 196.006 7.77838 196.123 7.85003C196.287 7.94556 196.404 8.04108 196.475 8.14852C196.545 8.24405 196.58 8.3754 196.58 8.54257V9.1038C196.58 9.35455 196.486 9.4859 196.31 9.4859C196.217 9.4859 196.064 9.43816 195.865 9.34263C195.197 9.03215 194.446 8.87693 193.614 8.87693C192.946 8.87693 192.418 8.98441 192.055 9.21128C191.691 9.43816 191.504 9.78443 191.504 10.274C191.504 10.6084 191.621 10.8949 191.855 11.1218C192.09 11.3487 192.524 11.5756 193.145 11.7786L194.81 12.3159C195.654 12.5905 196.263 12.9727 196.627 13.4622C196.99 13.9518 197.166 14.513 197.166 15.1339C197.166 15.6474 197.061 16.1131 196.861 16.5191C196.65 16.9251 196.369 17.2833 196.006 17.5699C195.642 17.8684 195.208 18.0834 194.704 18.2386C194.177 18.4058 193.626 18.4894 193.028 18.4894Z" fill="white"/>
<path d="M195.244 24.2926C191.387 27.1942 185.783 28.7346 180.964 28.7346C174.212 28.7346 168.127 26.1911 163.531 21.9641C163.168 21.6297 163.496 21.176 163.93 21.4387C168.901 24.3761 175.032 26.1554 181.375 26.1554C185.654 26.1554 190.355 25.2478 194.681 23.385C195.326 23.0865 195.877 23.8149 195.244 24.2926ZM196.85 22.4298C196.358 21.785 193.591 22.1193 192.336 22.2745C191.961 22.3223 191.903 21.988 192.243 21.7372C194.447 20.161 198.069 20.6148 198.491 21.1402C198.914 21.6775 198.374 25.3673 196.311 27.1345C195.994 27.4091 195.69 27.2659 195.83 26.9076C196.299 25.7255 197.343 23.0626 196.85 22.4298Z" fill="#FF9900"/>
</g>
<path d="M208.975 22.336C208.159 22.336 207.415 22.192 206.743 21.904C206.071 21.616 205.543 21.2 205.159 20.656C204.775 20.112 204.583 19.448 204.583 18.664C204.583 17.864 204.775 17.208 205.159 16.696C205.543 16.168 206.071 15.776 206.743 15.52C207.415 15.248 208.167 15.112 208.999 15.112H212.959V14.248C212.959 13.416 212.711 12.76 212.215 12.28C211.735 11.8 211.015 11.56 210.055 11.56C209.111 11.56 208.375 11.792 207.847 12.256C207.319 12.704 206.959 13.312 206.767 14.08L204.991 13.504C205.183 12.848 205.487 12.256 205.903 11.728C206.319 11.184 206.871 10.752 207.559 10.432C208.263 10.096 209.103 9.928 210.079 9.928C211.583 9.928 212.751 10.32 213.583 11.104C214.415 11.872 214.831 12.96 214.831 14.368V19.672C214.831 20.152 215.055 20.392 215.503 20.392H216.583V22H214.927C214.399 22 213.975 21.856 213.655 21.568C213.335 21.264 213.175 20.864 213.175 20.368V20.248H212.887C212.711 20.552 212.471 20.872 212.167 21.208C211.879 21.528 211.479 21.792 210.967 22C210.455 22.224 209.791 22.336 208.975 22.336ZM209.191 20.704C210.311 20.704 211.215 20.376 211.903 19.72C212.607 19.048 212.959 18.112 212.959 16.912V16.648H209.071C208.319 16.648 207.695 16.816 207.199 17.152C206.719 17.472 206.479 17.96 206.479 18.616C206.479 19.272 206.727 19.784 207.223 20.152C207.735 20.52 208.391 20.704 209.191 20.704ZM224.251 22.336C223.115 22.336 222.091 22.096 221.179 21.616C220.283 21.12 219.571 20.416 219.043 19.504C218.531 18.592 218.275 17.512 218.275 16.264V16C218.275 14.736 218.531 13.656 219.043 12.76C219.571 11.848 220.283 11.152 221.179 10.672C222.091 10.176 223.115 9.928 224.251 9.928C225.371 9.928 226.323 10.136 227.107 10.552C227.907 10.968 228.531 11.52 228.979 12.208C229.443 12.896 229.739 13.632 229.867 14.416L228.019 14.8C227.939 14.224 227.747 13.696 227.443 13.216C227.155 12.736 226.747 12.352 226.219 12.064C225.691 11.776 225.043 11.632 224.275 11.632C223.491 11.632 222.787 11.808 222.163 12.16C221.555 12.512 221.067 13.016 220.699 13.672C220.347 14.328 220.171 15.112 220.171 16.024V16.24C220.171 17.152 220.347 17.936 220.699 18.592C221.067 19.248 221.555 19.752 222.163 20.104C222.787 20.456 223.491 20.632 224.275 20.632C225.443 20.632 226.331 20.328 226.939 19.72C227.563 19.112 227.947 18.36 228.091 17.464L229.963 17.872C229.787 18.64 229.467 19.368 229.003 20.056C228.539 20.744 227.907 21.296 227.107 21.712C226.323 22.128 225.371 22.336 224.251 22.336ZM237.023 22C236.351 22 235.831 21.816 235.463 21.448C235.111 21.08 234.935 20.576 234.935 19.936V11.92H231.407V10.264H234.935V6.088H236.831V10.264H240.671V11.92H236.831V19.648C236.831 20.128 237.063 20.368 237.527 20.368H240.143V22H237.023ZM243.742 22V10.264H245.638V22H243.742ZM244.702 8.44C244.286 8.44 243.934 8.304 243.646 8.032C243.374 7.76 243.238 7.416 243.238 7C243.238 6.568 243.374 6.216 243.646 5.944C243.934 5.672 244.286 5.536 244.702 5.536C245.118 5.536 245.462 5.672 245.734 5.944C246.006 6.216 246.142 6.568 246.142 7C246.142 7.416 246.006 7.76 245.734 8.032C245.462 8.304 245.118 8.44 244.702 8.44ZM252.601 22L248.401 10.264H250.417L253.945 20.584H254.281L257.809 10.264H259.825L255.625 22H252.601ZM267.446 22.336C266.262 22.336 265.222 22.088 264.326 21.592C263.43 21.08 262.734 20.368 262.238 19.456C261.742 18.544 261.494 17.488 261.494 16.288V16C261.494 14.784 261.742 13.72 262.238 12.808C262.734 11.896 263.422 11.192 264.302 10.696C265.182 10.184 266.19 9.928 267.326 9.928C268.43 9.928 269.406 10.168 270.254 10.648C271.102 11.112 271.766 11.784 272.246 12.664C272.726 13.544 272.966 14.576 272.966 15.76V16.624H263.39C263.438 17.888 263.846 18.88 264.614 19.6C265.382 20.304 266.342 20.656 267.494 20.656C268.502 20.656 269.278 20.424 269.822 19.96C270.366 19.496 270.782 18.944 271.07 18.304L272.702 19.096C272.462 19.592 272.126 20.088 271.694 20.584C271.278 21.08 270.726 21.496 270.038 21.832C269.366 22.168 268.502 22.336 267.446 22.336ZM263.414 15.064H271.046C270.982 13.976 270.606 13.128 269.918 12.52C269.246 11.912 268.382 11.608 267.326 11.608C266.254 11.608 265.374 11.912 264.686 12.52C263.998 13.128 263.574 13.976 263.414 15.064Z" fill="white"/>
<path d="M347.164 7.73049L350.192 4.70284L350.394 3.42801C344.876 -1.58879 336.106 -1.01994 331.133 4.61495C329.751 6.17998 328.726 8.13119 328.18 10.146L329.264 9.99324L335.319 8.99472L335.787 8.51662C338.48 5.55848 343.034 5.16053 346.144 7.67743L347.164 7.73049Z" fill="#EA4335"/>
<path d="M354.505 10.0571C353.81 7.49437 352.381 5.19053 350.394 3.42822L346.145 7.67749C347.939 9.14363 348.961 11.3524 348.918 13.669V14.4233C351.006 14.4233 352.7 16.1165 352.7 18.2051C352.7 20.2938 351.006 21.9446 348.918 21.9446H341.343L340.6 22.7519V27.288L341.343 27.9997H348.918C354.35 28.042 358.789 23.7148 358.831 18.2821C358.857 14.9891 357.233 11.902 354.505 10.0571Z" fill="#4285F4"/>
<path d="M333.778 27.9999H341.342V21.9446H333.778C333.239 21.9445 332.717 21.8287 332.227 21.6047L331.154 21.934L328.105 24.9616L327.84 25.9921C329.55 27.2832 331.636 28.0092 333.778 27.9999Z" fill="#34A853"/>
<path d="M333.778 8.35749C328.346 8.38983 323.968 12.8204 324 18.2531C324.018 21.2869 325.435 24.1427 327.84 25.9921L332.227 21.6047C330.324 20.7447 329.478 18.5045 330.338 16.6011C331.198 14.6977 333.438 13.8518 335.342 14.7117C336.18 15.0906 336.852 15.7624 337.231 16.6011L341.618 12.2137C339.752 9.77327 336.851 8.34644 333.778 8.35749Z" fill="#FBBC05"/>
<path d="M373.062 13.3789H379.859V22.2617C378.961 22.5586 378.027 22.7969 377.059 22.9766C376.09 23.1484 374.992 23.2344 373.766 23.2344C372.062 23.2344 370.617 22.8984 369.43 22.2266C368.242 21.5547 367.34 20.5625 366.723 19.25C366.105 17.9375 365.797 16.3242 365.797 14.4102C365.797 12.6133 366.141 11.0586 366.828 9.74609C367.523 8.43359 368.535 7.41797 369.863 6.69922C371.199 5.98047 372.828 5.62109 374.75 5.62109C375.656 5.62109 376.551 5.71875 377.434 5.91406C378.316 6.10938 379.117 6.36328 379.836 6.67578L378.629 9.58203C378.105 9.31641 377.508 9.09375 376.836 8.91406C376.164 8.73438 375.461 8.64453 374.727 8.64453C373.672 8.64453 372.754 8.88672 371.973 9.37109C371.199 9.85547 370.598 10.5352 370.168 11.4102C369.746 12.2773 369.535 13.3008 369.535 14.4805C369.535 15.5977 369.688 16.5898 369.992 17.457C370.297 18.3164 370.777 18.9922 371.434 19.4844C372.09 19.9688 372.945 20.2109 374 20.2109C374.516 20.2109 374.949 20.1875 375.301 20.1406C375.66 20.0859 375.996 20.0312 376.309 19.9766V16.4023H373.062V13.3789ZM395.574 16.4258C395.574 17.5195 395.426 18.4883 395.129 19.332C394.84 20.1758 394.414 20.8906 393.852 21.4766C393.297 22.0547 392.625 22.4922 391.836 22.7891C391.055 23.0859 390.172 23.2344 389.188 23.2344C388.266 23.2344 387.418 23.0859 386.645 22.7891C385.879 22.4922 385.211 22.0547 384.641 21.4766C384.078 20.8906 383.641 20.1758 383.328 19.332C383.023 18.4883 382.871 17.5195 382.871 16.4258C382.871 14.9727 383.129 13.7422 383.645 12.7344C384.16 11.7266 384.895 10.9609 385.848 10.4375C386.801 9.91406 387.938 9.65234 389.258 9.65234C390.484 9.65234 391.57 9.91406 392.516 10.4375C393.469 10.9609 394.215 11.7266 394.754 12.7344C395.301 13.7422 395.574 14.9727 395.574 16.4258ZM386.516 16.4258C386.516 17.2852 386.609 18.0078 386.797 18.5938C386.984 19.1797 387.277 19.6211 387.676 19.918C388.074 20.2148 388.594 20.3633 389.234 20.3633C389.867 20.3633 390.379 20.2148 390.77 19.918C391.168 19.6211 391.457 19.1797 391.637 18.5938C391.824 18.0078 391.918 17.2852 391.918 16.4258C391.918 15.5586 391.824 14.8398 391.637 14.2695C391.457 13.6914 391.168 13.2578 390.77 12.9688C390.371 12.6797 389.852 12.5352 389.211 12.5352C388.266 12.5352 387.578 12.8594 387.148 13.5078C386.727 14.1562 386.516 15.1289 386.516 16.4258ZM410.434 16.4258C410.434 17.5195 410.285 18.4883 409.988 19.332C409.699 20.1758 409.273 20.8906 408.711 21.4766C408.156 22.0547 407.484 22.4922 406.695 22.7891C405.914 23.0859 405.031 23.2344 404.047 23.2344C403.125 23.2344 402.277 23.0859 401.504 22.7891C400.738 22.4922 400.07 22.0547 399.5 21.4766C398.938 20.8906 398.5 20.1758 398.188 19.332C397.883 18.4883 397.73 17.5195 397.73 16.4258C397.73 14.9727 397.988 13.7422 398.504 12.7344C399.02 11.7266 399.754 10.9609 400.707 10.4375C401.66 9.91406 402.797 9.65234 404.117 9.65234C405.344 9.65234 406.43 9.91406 407.375 10.4375C408.328 10.9609 409.074 11.7266 409.613 12.7344C410.16 13.7422 410.434 14.9727 410.434 16.4258ZM401.375 16.4258C401.375 17.2852 401.469 18.0078 401.656 18.5938C401.844 19.1797 402.137 19.6211 402.535 19.918C402.934 20.2148 403.453 20.3633 404.094 20.3633C404.727 20.3633 405.238 20.2148 405.629 19.918C406.027 19.6211 406.316 19.1797 406.496 18.5938C406.684 18.0078 406.777 17.2852 406.777 16.4258C406.777 15.5586 406.684 14.8398 406.496 14.2695C406.316 13.6914 406.027 13.2578 405.629 12.9688C405.23 12.6797 404.711 12.5352 404.07 12.5352C403.125 12.5352 402.438 12.8594 402.008 13.5078C401.586 14.1562 401.375 15.1289 401.375 16.4258ZM417.219 28.7656C415.391 28.7656 413.992 28.4453 413.023 27.8047C412.062 27.1719 411.582 26.2812 411.582 25.1328C411.582 24.3438 411.828 23.6836 412.32 23.1523C412.812 22.6211 413.535 22.2422 414.488 22.0156C414.121 21.8594 413.801 21.6055 413.527 21.2539C413.254 20.8945 413.117 20.5156 413.117 20.1172C413.117 19.6172 413.262 19.2031 413.551 18.875C413.84 18.5391 414.258 18.2109 414.805 17.8906C414.117 17.5938 413.57 17.1172 413.164 16.4609C412.766 15.8047 412.566 15.0312 412.566 14.1406C412.566 13.1875 412.773 12.3789 413.188 11.7148C413.609 11.043 414.219 10.5312 415.016 10.1797C415.82 9.82812 416.797 9.65234 417.945 9.65234C418.188 9.65234 418.469 9.66797 418.789 9.69922C419.109 9.73047 419.402 9.76562 419.668 9.80469C419.941 9.84375 420.125 9.875 420.219 9.89844H424.789V11.7148L422.738 12.2422C422.926 12.5312 423.066 12.8398 423.16 13.168C423.254 13.4961 423.301 13.8438 423.301 14.2109C423.301 15.6172 422.809 16.7148 421.824 17.5039C420.848 18.2852 419.488 18.6758 417.746 18.6758C417.332 18.6523 416.941 18.6211 416.574 18.582C416.395 18.7227 416.258 18.8711 416.164 19.0273C416.07 19.1836 416.023 19.3477 416.023 19.5195C416.023 19.6914 416.094 19.8359 416.234 19.9531C416.383 20.0625 416.602 20.1484 416.891 20.2109C417.188 20.2656 417.555 20.293 417.992 20.293H420.219C421.656 20.293 422.75 20.6016 423.5 21.2188C424.258 21.8359 424.637 22.7422 424.637 23.9375C424.637 25.4688 423.996 26.6562 422.715 27.5C421.441 28.3438 419.609 28.7656 417.219 28.7656ZM417.371 26.4336C418.223 26.4336 418.953 26.3516 419.562 26.1875C420.18 26.0312 420.652 25.8047 420.98 25.5078C421.309 25.2188 421.473 24.8711 421.473 24.4648C421.473 24.1367 421.375 23.875 421.18 23.6797C420.992 23.4922 420.703 23.3594 420.312 23.2812C419.93 23.2031 419.438 23.1641 418.836 23.1641H416.984C416.547 23.1641 416.152 23.2344 415.801 23.375C415.457 23.5156 415.184 23.7109 414.98 23.9609C414.777 24.2188 414.676 24.5156 414.676 24.8516C414.676 25.3438 414.91 25.7305 415.379 26.0117C415.855 26.293 416.52 26.4336 417.371 26.4336ZM417.945 16.4961C418.617 16.4961 419.109 16.2891 419.422 15.875C419.734 15.4609 419.891 14.8984 419.891 14.1875C419.891 13.3984 419.727 12.8086 419.398 12.418C419.078 12.0195 418.594 11.8203 417.945 11.8203C417.289 11.8203 416.797 12.0195 416.469 12.418C416.141 12.8086 415.977 13.3984 415.977 14.1875C415.977 14.8984 416.137 15.4609 416.457 15.875C416.785 16.2891 417.281 16.4961 417.945 16.4961ZM430.531 23H426.957V4.76562H430.531V23ZM439.695 9.65234C440.906 9.65234 441.949 9.88672 442.824 10.3555C443.699 10.8164 444.375 11.4883 444.852 12.3711C445.328 13.2539 445.566 14.332 445.566 15.6055V17.3398H437.117C437.156 18.3477 437.457 19.1406 438.02 19.7188C438.59 20.2891 439.379 20.5742 440.387 20.5742C441.223 20.5742 441.988 20.4883 442.684 20.3164C443.379 20.1445 444.094 19.8867 444.828 19.543V22.3086C444.18 22.6289 443.5 22.8633 442.789 23.0117C442.086 23.1602 441.23 23.2344 440.223 23.2344C438.91 23.2344 437.746 22.9922 436.73 22.5078C435.723 22.0234 434.93 21.2852 434.352 20.293C433.781 19.3008 433.496 18.0508 433.496 16.543C433.496 15.0117 433.754 13.7383 434.27 12.7227C434.793 11.6992 435.52 10.9336 436.449 10.4258C437.379 9.91016 438.461 9.65234 439.695 9.65234ZM439.719 12.1953C439.023 12.1953 438.445 12.418 437.984 12.8633C437.531 13.3086 437.27 14.0078 437.199 14.9609H442.215C442.207 14.4297 442.109 13.957 441.922 13.543C441.742 13.1289 441.469 12.8008 441.102 12.5586C440.742 12.3164 440.281 12.1953 439.719 12.1953Z" fill="white"/>
<path d="M457.148 7.37891C456.203 7.37891 455.352 7.54297 454.594 7.87109C453.844 8.19141 453.203 8.66016 452.672 9.27734C452.148 9.88672 451.746 10.625 451.465 11.4922C451.184 12.3594 451.043 13.3359 451.043 14.4219C451.043 15.8594 451.266 17.1094 451.711 18.1719C452.164 19.2266 452.836 20.043 453.727 20.6211C454.625 21.1992 455.746 21.4883 457.09 21.4883C457.855 21.4883 458.574 21.4258 459.246 21.3008C459.926 21.168 460.586 21.0039 461.227 20.8086V22.543C460.602 22.7773 459.945 22.9492 459.258 23.0586C458.57 23.1758 457.754 23.2344 456.809 23.2344C455.066 23.2344 453.609 22.875 452.438 22.1562C451.273 21.4297 450.398 20.4062 449.812 19.0859C449.234 17.7656 448.945 16.207 448.945 14.4102C448.945 13.1133 449.125 11.9297 449.484 10.8594C449.852 9.78125 450.383 8.85156 451.078 8.07031C451.781 7.28906 452.641 6.6875 453.656 6.26562C454.68 5.83594 455.852 5.62109 457.172 5.62109C458.039 5.62109 458.875 5.70703 459.68 5.87891C460.484 6.05078 461.211 6.29688 461.859 6.61719L461.062 8.30469C460.516 8.05469 459.914 7.83984 459.258 7.66016C458.609 7.47266 457.906 7.37891 457.148 7.37891ZM466.605 23H464.648V4.76562H466.605V23ZM481.793 16.5547C481.793 17.6094 481.656 18.5508 481.383 19.3789C481.109 20.207 480.715 20.9062 480.199 21.4766C479.684 22.0469 479.059 22.4844 478.324 22.7891C477.598 23.0859 476.773 23.2344 475.852 23.2344C474.992 23.2344 474.203 23.0859 473.484 22.7891C472.773 22.4844 472.156 22.0469 471.633 21.4766C471.117 20.9062 470.715 20.207 470.426 19.3789C470.145 18.5508 470.004 17.6094 470.004 16.5547C470.004 15.1484 470.242 13.9531 470.719 12.9688C471.195 11.9766 471.875 11.2227 472.758 10.707C473.648 10.1836 474.707 9.92188 475.934 9.92188C477.105 9.92188 478.129 10.1836 479.004 10.707C479.887 11.2305 480.57 11.9883 481.055 12.9805C481.547 13.9648 481.793 15.1562 481.793 16.5547ZM472.02 16.5547C472.02 17.5859 472.156 18.4805 472.43 19.2383C472.703 19.9961 473.125 20.582 473.695 20.9961C474.266 21.4102 475 21.6172 475.898 21.6172C476.789 21.6172 477.52 21.4102 478.09 20.9961C478.668 20.582 479.094 19.9961 479.367 19.2383C479.641 18.4805 479.777 17.5859 479.777 16.5547C479.777 15.5312 479.641 14.6484 479.367 13.9062C479.094 13.1562 478.672 12.5781 478.102 12.1719C477.531 11.7656 476.793 11.5625 475.887 11.5625C474.551 11.5625 473.57 12.0039 472.945 12.8867C472.328 13.7695 472.02 14.9922 472.02 16.5547ZM495.762 10.1562V23H494.168L493.887 21.1953H493.781C493.516 21.6406 493.172 22.0156 492.75 22.3203C492.328 22.625 491.852 22.8516 491.32 23C490.797 23.1562 490.238 23.2344 489.645 23.2344C488.629 23.2344 487.777 23.0703 487.09 22.7422C486.402 22.4141 485.883 21.9062 485.531 21.2188C485.188 20.5312 485.016 19.6484 485.016 18.5703V10.1562H486.984V18.4297C486.984 19.5 487.227 20.3008 487.711 20.832C488.195 21.3555 488.934 21.6172 489.926 21.6172C490.879 21.6172 491.637 21.4375 492.199 21.0781C492.77 20.7188 493.18 20.1914 493.43 19.4961C493.68 18.793 493.805 17.9336 493.805 16.918V10.1562H495.762ZM504.445 23.2344C502.82 23.2344 501.531 22.6797 500.578 21.5703C499.633 20.4609 499.16 18.8125 499.16 16.625C499.16 14.4141 499.645 12.7461 500.613 11.6211C501.582 10.4883 502.871 9.92188 504.48 9.92188C505.16 9.92188 505.754 10.0117 506.262 10.1914C506.77 10.3711 507.207 10.6133 507.574 10.918C507.941 11.2148 508.25 11.5547 508.5 11.9375H508.641C508.609 11.6953 508.578 11.3633 508.547 10.9414C508.516 10.5195 508.5 10.1758 508.5 9.91016V4.76562H510.445V23H508.875L508.582 21.1719H508.5C508.258 21.5547 507.949 21.9023 507.574 22.2148C507.207 22.5273 506.766 22.7773 506.25 22.9648C505.742 23.1445 505.141 23.2344 504.445 23.2344ZM504.75 21.6172C506.125 21.6172 507.098 21.2266 507.668 20.4453C508.238 19.6641 508.523 18.5039 508.523 16.9648V16.6133C508.523 14.9805 508.25 13.7266 507.703 12.8516C507.164 11.9766 506.18 11.5391 504.75 11.5391C503.555 11.5391 502.66 12 502.066 12.9219C501.473 13.8359 501.176 15.0859 501.176 16.6719C501.176 18.25 501.469 19.4688 502.055 20.3281C502.648 21.1875 503.547 21.6172 504.75 21.6172Z" fill="white"/>
<defs>
<clipPath id="clip0_1_1255">
<rect width="36" height="22" fill="white" transform="translate(163 7)"/>
</clipPath>
</defs>
</svg>
