<svg width="123" height="25" viewBox="0 0 123 25" fill="none" xmlns="http://www.w3.org/2000/svg">
<path d="M49.4724 0.735474H59.2193L68.6737 24.6449H60.5454L59.3697 21.2984H49.3275L48.1518 24.6449H40.0234L49.4724 0.735474ZM57.382 15.7811L54.3664 7.28357L51.3124 15.7811H57.382Z" fill="#0071FF"/>
<path d="M81.8805 0C89.678 0 94.2029 3.6035 94.7552 10.004H86.9576C86.3698 7.75929 84.7512 6.58364 81.7711 6.58364C78.02 6.58364 75.9585 8.53303 75.9585 12.2842C75.9585 16.0353 77.9462 18.0585 81.9188 18.0585C85.1204 18.0585 86.7362 16.697 87.1053 13.9383H94.829C94.572 20.8527 90.0116 24.6422 81.8805 24.6422C73.0166 24.6422 68.0488 20.1911 68.0488 12.2842C68.0488 4.37724 73.126 0 81.8805 0Z" fill="#0071FF"/>
<path d="M97.3271 0.735474H105.051V9.59933H115.276V0.735474H123V24.6449H115.276V16.2212H105.051V24.6449H97.3271V0.735474Z" fill="#0071FF"/>
<path d="M32.1966 0.445801L32.1528 0.508684L27.8877 6.68495V17.356L31.103 12.8011V12.8503V24.3361H38.7638V0.445801H32.1966Z" fill="#90C63D"/>
<path d="M23.9668 12.224L23.945 12.2541V0.30896H17.2875L9.0361 12.0272L0 24.336H8.03269L16.2404 12.6177V24.2895H22.8568H22.8978L26.7939 18.7694V8.13113L23.9668 12.224Z" fill="#0071FF"/>
</svg>
